# xmcd
#
# Track frame offsets:
#	150
#	13926
#	27220
#	40111
#	57496
#	76143
#	92122
#	108440
#	123527
#	139925
#	157114
#	171041
#	187459
#	201129
#	214251
#	227901
#
# Disc length: 3275 seconds
#
# Revision: 1
# Processed by: cddbd v1.5.2PL0 Copyright (c) Steve Scherf et al.
# Submitted via: audiograbber 1.83.01
#
DISCID=e90cc910
DTITLE=Various Artist - Nu Country Traxx 013
DYEAR=2000
DGENRE=
TTITLE0=Slaid Cleaves - Horseshoe Lounge
TTITLE1=Anita Cochran - Good Times
TTITLE2=Alan Jackson - It Must Be Love
TTITLE3=Marty Raybon - Searching For The Missing Piece
TTITLE4=Nickel Creek - Reasons Why
TTITLE5=John Anderson - You Ain't Heard Nothin' Yet
TTITLE6=Alabama - We Made Love
TTITLE7=Wade Hayes - Goodbye Is The Wrong Way To Go
TTITLE8=Toby Keith - Country Comes To Town
TTITLE9=John Cowan - Witchita Way
TTITLE10=Bad Livers - Love Songs Suck
TTITLE11=Montgomery Gentry - Self Made Man
TTITLE12=Ricochet - Do I Love You Enough
TTITLE13=Aaron Tippin - Kiss This
TTITLE14=Chuck Wagon and The Wheels - Beauty's In The Eye Of The Beerholder
TTITLE15=Charlie Daniels Band - Road Dog's
EXTD=
EXTT0=
EXTT1=
EXTT2=
EXTT3=
EXTT4=
EXTT5=
EXTT6=
EXTT7=
EXTT8=
EXTT9=
EXTT10=
EXTT11=
EXTT12=
EXTT13=
EXTT14=
EXTT15=
PLAYORDER=
